# xmcd
#
# Track frame offsets: 
#        150
#        16772
#        29555
#        31250
#        36952
#        41346
#        43012
#        58909
#        64641
#        65630
#        76491
#        81125
#        124608
#        139916
#        168962
#        178760
#        211441
#        240828
#
# Disc length: 3490 seconds
#
# Revision: 4
# Processed by: cddbd v1.5.2PL0 Copyright (c) Steve Scherf et al.
# Submitted via: ExactAudioCopy v0.99pb5
#
DISCID=f10da012
DTITLE=The Who - Live At The Isle Of Wight Festival 1970 [CD2]
DYEAR=2010
DGENRE=Classic Rock
TTITLE0=The Acid Queen
TTITLE1=Pinball Wizard
TTITLE2=Do You Think It's Alright?
TTITLE3=Fiddle About
TTITLE4=Tommy Can You Hear Me?
TTITLE5=There's A Doctor
TTITLE6=Go To The Mirror!
TTITLE7=Smash The Mirror
TTITLE8=Miracle Cure
TTITLE9=I'm Free
TTITLE10=Tommy's Holiday Camp
TTITLE11=We're Not Gonna Take It
TTITLE12=Summertime Blues
TTITLE13=Shakin' All Over ~ Spoonful ~ Twist and Shout
TTITLE14=Substitute
TTITLE15=My Generation
TTITLE16=Naked Eye
TTITLE17=Magic Bus
EXTD=
EXTT0=
EXTT1=
EXTT2=
EXTT3=
EXTT4=
EXTT5=
EXTT6=
EXTT7=
EXTT8=
EXTT9=
EXTT10=
EXTT11=
EXTT12=
EXTT13=
EXTT14=
EXTT15=
EXTT16=
EXTT17=
PLAYORDER=
